<svg width="34" height="33" viewBox="0 0 34 33" fill="none" xmlns="http://www.w3.org/2000/svg">
<path d="M12.0455 6.5H11.5455H3.02273C2.87073 6.5 2.73277 6.55575 2.63741 6.64316C2.54351 6.72924 2.5 6.8362 2.5 6.9375C2.5 7.0388 2.54351 7.14576 2.63741 7.23184C2.73277 7.31925 2.87073 7.375 3.02273 7.375H4.80909H5.2657L5.30704 7.82973L6.96658 26.0835C7.07477 27.2733 7.66751 28.3925 8.64216 29.2146C9.61792 30.0376 10.903 30.4999 12.2436 30.5L12.0455 6.5ZM12.0455 6.5V6M12.0455 6.5V6M12.0455 6C12.0455 4.82126 12.5559 3.68099 13.4809 2.83304C14.4074 1.98376 15.6726 1.5 17 1.5C18.3274 1.5 19.5926 1.98376 20.5191 2.83304C21.4441 3.68099 21.9545 4.82126 21.9545 6V6.5M12.0455 6L21.9545 6.5M21.9545 6.5H22.4545M21.9545 6.5H22.4545M22.4545 6.5H30.9773C31.1293 6.5 31.2672 6.55575 31.3626 6.64316C31.4565 6.72924 31.5 6.8362 31.5 6.9375C31.5 7.0388 31.4565 7.14576 31.3626 7.23184C31.2672 7.31925 31.1293 7.375 30.9773 7.375H29.1909H28.7343M22.4545 6.5L28.7343 7.375M28.7343 7.375L28.693 7.82973M28.7343 7.375L28.693 7.82973M28.693 7.82973L27.0334 26.0835M28.693 7.82973L27.0334 26.0835M27.0334 26.0835C26.9252 27.2733 26.3325 28.3925 25.3578 29.2146M27.0334 26.0835L25.3578 29.2146M25.3578 29.2146C24.3821 30.0376 23.097 30.4999 21.7564 30.5M25.3578 29.2146L21.7564 30.5M21.7564 30.5C21.7564 30.5 21.7563 30.5 21.7563 30.5M21.7564 30.5H21.7563M21.7563 30.5H12.2437H21.7563ZM13.0909 6V6.5H13.5909H20.4091H20.9091V6C20.9091 5.02386 20.4857 4.0975 19.7485 3.42171C19.0127 2.74726 18.0234 2.375 17 2.375C15.9766 2.375 14.9873 2.74726 14.2515 3.42171C13.5143 4.0975 13.0909 5.02386 13.0909 6Z" fill="#F5F5F5" stroke="#F5F5F5"/>
</svg>
